<svg width="222" height="34" viewBox="0 0 222 34" fill="none" xmlns="http://www.w3.org/2000/svg">
<mask id="path-1-outside-1_1_391" maskUnits="userSpaceOnUse" x="0" y="0" width="222" height="34" fill="black">
<rect fill="white" width="222" height="34"/>
<path d="M1 7.19355V1H27.5631V7.19355H18.0335V32.5532H10.5449V7.19355H1Z"/>
<path d="M38.8728 33C36.4073 33 34.2794 32.5121 32.489 31.5364C30.709 30.5503 29.3381 29.1483 28.3764 27.3303C27.425 25.502 26.9493 23.3296 26.9493 20.8132C26.9493 18.3686 27.4301 16.2322 28.3918 14.4039C29.3534 12.5654 30.709 11.1377 32.4584 10.1208C34.2077 9.09373 36.2692 8.58016 38.6426 8.58016C40.3204 8.58016 41.8549 8.84208 43.2463 9.36591C44.6376 9.88974 45.8397 10.6652 46.8525 11.6923C47.8653 12.7195 48.653 13.988 49.2157 15.4978C49.7784 16.9974 50.0597 18.7179 50.0597 20.6591V22.5388H29.5734V18.1632H43.0775C43.0672 17.3621 42.878 16.6482 42.5097 16.0217C42.1414 15.3951 41.635 14.9072 40.9905 14.558C40.3562 14.1985 39.6247 14.0188 38.7961 14.0188C37.9572 14.0188 37.2052 14.2088 36.5403 14.5888C35.8753 14.9586 35.3484 15.467 34.9597 16.1141C34.5709 16.7509 34.3663 17.475 34.3459 18.2865V22.739C34.3459 23.7045 34.5351 24.5519 34.9136 25.2812C35.2922 26.0002 35.8293 26.5599 36.5249 26.9605C37.2206 27.3611 38.0492 27.5614 39.0109 27.5614C39.6759 27.5614 40.2795 27.4689 40.8217 27.2841C41.3639 27.0992 41.8294 26.827 42.2181 26.4675C42.6069 26.108 42.8984 25.6663 43.0928 25.1425L49.983 25.3428C49.6965 26.8938 49.0673 28.2444 48.0955 29.3948C47.1338 30.5349 45.8704 31.4234 44.3051 32.0602C42.7399 32.6867 40.9291 33 38.8728 33Z"/>
<path d="M64.895 33C62.409 33 60.276 32.4864 58.4959 31.4593C56.726 30.4322 55.3654 29.0045 54.414 27.1762C53.4626 25.3377 52.9868 23.2115 52.9868 20.7978C52.9868 18.3738 53.4626 16.2476 54.414 14.4194C55.3756 12.5808 56.7414 11.148 58.5112 10.1208C60.2913 9.09373 62.4141 8.58016 64.8796 8.58016C67.0587 8.58016 68.9564 8.97561 70.5728 9.76649C72.1995 10.5574 73.468 11.6769 74.3785 13.1252C75.2993 14.5632 75.7852 16.2528 75.8364 18.194H68.8234C68.6802 16.982 68.271 16.0319 67.5958 15.3438C66.9308 14.6556 66.0612 14.3115 64.9871 14.3115C64.1175 14.3115 63.3553 14.558 62.7006 15.051C62.0458 15.5338 61.5343 16.2528 61.166 17.208C60.808 18.1529 60.6289 19.3239 60.6289 20.7208C60.6289 22.1176 60.808 23.2988 61.166 24.2643C61.5343 25.2195 62.0458 25.9437 62.7006 26.4367C63.3553 26.9194 64.1175 27.1608 64.9871 27.1608C65.6827 27.1608 66.2965 27.0119 66.8285 26.714C67.3707 26.4161 67.8158 25.9796 68.1636 25.4044C68.5114 24.819 68.7314 24.1103 68.8234 23.2783H75.8364C75.7647 25.2298 75.2788 26.9348 74.3785 28.3934C73.4885 29.8519 72.2353 30.9868 70.6189 31.7983C69.0127 32.5994 67.1047 33 64.895 33Z"/>
<path d="M87.1805 19.0568V32.5532H79.6766V1H86.935V13.233H87.1959C87.7279 11.7745 88.5975 10.6344 89.8046 9.81271C91.022 8.99101 92.5106 8.58016 94.2702 8.58016C95.9275 8.58016 97.37 8.94993 98.5976 9.68946C99.8253 10.4187 100.777 11.451 101.452 12.7862C102.137 14.1215 102.475 15.6827 102.465 17.4699V32.5532H94.9607V18.949C94.971 17.6342 94.6436 16.6071 93.9786 15.8676C93.3136 15.1281 92.3776 14.7583 91.1704 14.7583C90.3826 14.7583 89.687 14.9329 89.0834 15.2821C88.49 15.6211 88.0246 16.109 87.687 16.7458C87.3596 17.3826 87.1908 18.1529 87.1805 19.0568Z"/>
<path d="M112.489 32.5532L103.343 1H111.737L116.479 21.676H116.74L122.157 1H129.001L134.418 21.7222H134.679L139.436 1H147.815L138.684 32.5532H131.364L125.702 13.4179H125.456L119.794 32.5532H112.489Z"/>
<path d="M154.981 32.9538C153.477 32.9538 152.142 32.7021 150.976 32.1988C149.82 31.6853 148.904 30.9149 148.229 29.8878C147.564 28.8504 147.231 27.5511 147.231 25.9899C147.231 24.6752 147.462 23.5659 147.922 22.662C148.382 21.7581 149.017 21.0238 149.825 20.4588C150.633 19.8939 151.564 19.4677 152.618 19.1801C153.671 18.8822 154.797 18.6819 155.994 18.5792C157.334 18.4559 158.413 18.3276 159.232 18.194C160.05 18.0502 160.643 17.8499 161.012 17.5932C161.39 17.3261 161.58 16.9512 161.58 16.4685V16.3914C161.58 15.6005 161.308 14.9894 160.766 14.558C160.224 14.1266 159.493 13.9109 158.572 13.9109C157.579 13.9109 156.782 14.1266 156.178 14.558C155.574 14.9894 155.191 15.5851 155.027 16.3452L148.106 16.0987C148.311 14.6607 148.838 13.3768 149.687 12.247C150.546 11.1069 151.723 10.2133 153.216 9.5662C154.72 8.90884 156.526 8.58016 158.633 8.58016C160.137 8.58016 161.523 8.75991 162.792 9.1194C164.06 9.46862 165.165 9.98219 166.106 10.6601C167.048 11.3277 167.774 12.1494 168.286 13.1252C168.807 14.1009 169.068 15.2154 169.068 16.4685V32.5532H162.009V29.2561H161.825C161.406 30.0573 160.869 30.7352 160.214 31.2898C159.569 31.8445 158.807 32.2605 157.927 32.5378C157.058 32.8151 156.076 32.9538 154.981 32.9538ZM157.298 28.0236C158.106 28.0236 158.833 27.8593 159.477 27.5306C160.132 27.2019 160.654 26.75 161.042 26.1748C161.431 25.5893 161.626 24.9114 161.626 24.1411V21.8917C161.411 22.0047 161.15 22.1074 160.843 22.1998C160.546 22.2922 160.219 22.3796 159.861 22.4617C159.503 22.5439 159.134 22.6158 158.756 22.6774C158.377 22.739 158.014 22.7955 157.666 22.8469C156.961 22.9599 156.357 23.1345 155.856 23.3707C155.365 23.607 154.986 23.9151 154.72 24.2951C154.464 24.6649 154.336 25.1066 154.336 25.6201C154.336 26.4007 154.613 26.9965 155.165 27.4073C155.728 27.8182 156.439 28.0236 157.298 28.0236Z"/>
<path d="M195.677 8.8883L187.59 32.5532H178.997L170.925 8.8883H178.828L183.171 25.1887H183.416L187.774 8.8883H195.677Z"/>
<path d="M208.813 33C206.348 33 204.22 32.5121 202.429 31.5364C200.649 30.5503 199.278 29.1483 198.317 27.3303C197.365 25.502 196.89 23.3296 196.89 20.8132C196.89 18.3686 197.37 16.2322 198.332 14.4039C199.294 12.5654 200.649 11.1377 202.399 10.1208C204.148 9.09373 206.21 8.58016 208.583 8.58016C210.261 8.58016 211.795 8.84208 213.187 9.36591C214.578 9.88974 215.78 10.6652 216.793 11.6923C217.806 12.7195 218.593 13.988 219.156 15.4978C219.719 16.9974 220 18.7179 220 20.6591V22.5388H199.514V18.1632H213.018C213.008 17.3621 212.818 16.6482 212.45 16.0217C212.082 15.3951 211.575 14.9072 210.931 14.558C210.297 14.1985 209.565 14.0188 208.736 14.0188C207.897 14.0188 207.146 14.2088 206.481 14.5888C205.816 14.9586 205.289 15.467 204.9 16.1141C204.511 16.7509 204.307 17.475 204.286 18.2865V22.739C204.286 23.7045 204.475 24.5519 204.854 25.2812C205.232 26.0002 205.77 26.5599 206.465 26.9605C207.161 27.3611 207.99 27.5614 208.951 27.5614C209.616 27.5614 210.22 27.4689 210.762 27.2841C211.304 27.0992 211.77 26.827 212.158 26.4675C212.547 26.108 212.839 25.6663 213.033 25.1425L219.923 25.3428C219.637 26.8938 219.008 28.2444 218.036 29.3948C217.074 30.5349 215.811 31.4234 214.245 32.0602C212.68 32.6867 210.869 33 208.813 33Z"/>
</mask>
<path d="M1 7.19355V1H27.5631V7.19355H18.0335V32.5532H10.5449V7.19355H1Z" fill="white"/>
<path d="M38.8728 33C36.4073 33 34.2794 32.5121 32.489 31.5364C30.709 30.5503 29.3381 29.1483 28.3764 27.3303C27.425 25.502 26.9493 23.3296 26.9493 20.8132C26.9493 18.3686 27.4301 16.2322 28.3918 14.4039C29.3534 12.5654 30.709 11.1377 32.4584 10.1208C34.2077 9.09373 36.2692 8.58016 38.6426 8.58016C40.3204 8.58016 41.8549 8.84208 43.2463 9.36591C44.6376 9.88974 45.8397 10.6652 46.8525 11.6923C47.8653 12.7195 48.653 13.988 49.2157 15.4978C49.7784 16.9974 50.0597 18.7179 50.0597 20.6591V22.5388H29.5734V18.1632H43.0775C43.0672 17.3621 42.878 16.6482 42.5097 16.0217C42.1414 15.3951 41.635 14.9072 40.9905 14.558C40.3562 14.1985 39.6247 14.0188 38.7961 14.0188C37.9572 14.0188 37.2052 14.2088 36.5403 14.5888C35.8753 14.9586 35.3484 15.467 34.9597 16.1141C34.5709 16.7509 34.3663 17.475 34.3459 18.2865V22.739C34.3459 23.7045 34.5351 24.5519 34.9136 25.2812C35.2922 26.0002 35.8293 26.5599 36.5249 26.9605C37.2206 27.3611 38.0492 27.5614 39.0109 27.5614C39.6759 27.5614 40.2795 27.4689 40.8217 27.2841C41.3639 27.0992 41.8294 26.827 42.2181 26.4675C42.6069 26.108 42.8984 25.6663 43.0928 25.1425L49.983 25.3428C49.6965 26.8938 49.0673 28.2444 48.0955 29.3948C47.1338 30.5349 45.8704 31.4234 44.3051 32.0602C42.7399 32.6867 40.9291 33 38.8728 33Z" fill="white"/>
<path d="M64.895 33C62.409 33 60.276 32.4864 58.4959 31.4593C56.726 30.4322 55.3654 29.0045 54.414 27.1762C53.4626 25.3377 52.9868 23.2115 52.9868 20.7978C52.9868 18.3738 53.4626 16.2476 54.414 14.4194C55.3756 12.5808 56.7414 11.148 58.5112 10.1208C60.2913 9.09373 62.4141 8.58016 64.8796 8.58016C67.0587 8.58016 68.9564 8.97561 70.5728 9.76649C72.1995 10.5574 73.468 11.6769 74.3785 13.1252C75.2993 14.5632 75.7852 16.2528 75.8364 18.194H68.8234C68.6802 16.982 68.271 16.0319 67.5958 15.3438C66.9308 14.6556 66.0612 14.3115 64.9871 14.3115C64.1175 14.3115 63.3553 14.558 62.7006 15.051C62.0458 15.5338 61.5343 16.2528 61.166 17.208C60.808 18.1529 60.6289 19.3239 60.6289 20.7208C60.6289 22.1176 60.808 23.2988 61.166 24.2643C61.5343 25.2195 62.0458 25.9437 62.7006 26.4367C63.3553 26.9194 64.1175 27.1608 64.9871 27.1608C65.6827 27.1608 66.2965 27.0119 66.8285 26.714C67.3707 26.4161 67.8158 25.9796 68.1636 25.4044C68.5114 24.819 68.7314 24.1103 68.8234 23.2783H75.8364C75.7647 25.2298 75.2788 26.9348 74.3785 28.3934C73.4885 29.8519 72.2353 30.9868 70.6189 31.7983C69.0127 32.5994 67.1047 33 64.895 33Z" fill="white"/>
<path d="M87.1805 19.0568V32.5532H79.6766V1H86.935V13.233H87.1959C87.7279 11.7745 88.5975 10.6344 89.8046 9.81271C91.022 8.99101 92.5106 8.58016 94.2702 8.58016C95.9275 8.58016 97.37 8.94993 98.5976 9.68946C99.8253 10.4187 100.777 11.451 101.452 12.7862C102.137 14.1215 102.475 15.6827 102.465 17.4699V32.5532H94.9607V18.949C94.971 17.6342 94.6436 16.6071 93.9786 15.8676C93.3136 15.1281 92.3776 14.7583 91.1704 14.7583C90.3826 14.7583 89.687 14.9329 89.0834 15.2821C88.49 15.6211 88.0246 16.109 87.687 16.7458C87.3596 17.3826 87.1908 18.1529 87.1805 19.0568Z" fill="white"/>
<path d="M112.489 32.5532L103.343 1H111.737L116.479 21.676H116.74L122.157 1H129.001L134.418 21.7222H134.679L139.436 1H147.815L138.684 32.5532H131.364L125.702 13.4179H125.456L119.794 32.5532H112.489Z" fill="url(#paint0_linear_1_391)"/>
<path d="M154.981 32.9538C153.477 32.9538 152.142 32.7021 150.976 32.1988C149.82 31.6853 148.904 30.9149 148.229 29.8878C147.564 28.8504 147.231 27.5511 147.231 25.9899C147.231 24.6752 147.462 23.5659 147.922 22.662C148.382 21.7581 149.017 21.0238 149.825 20.4588C150.633 19.8939 151.564 19.4677 152.618 19.1801C153.671 18.8822 154.797 18.6819 155.994 18.5792C157.334 18.4559 158.413 18.3276 159.232 18.194C160.05 18.0502 160.643 17.8499 161.012 17.5932C161.39 17.3261 161.58 16.9512 161.58 16.4685V16.3914C161.58 15.6005 161.308 14.9894 160.766 14.558C160.224 14.1266 159.493 13.9109 158.572 13.9109C157.579 13.9109 156.782 14.1266 156.178 14.558C155.574 14.9894 155.191 15.5851 155.027 16.3452L148.106 16.0987C148.311 14.6607 148.838 13.3768 149.687 12.247C150.546 11.1069 151.723 10.2133 153.216 9.5662C154.72 8.90884 156.526 8.58016 158.633 8.58016C160.137 8.58016 161.523 8.75991 162.792 9.1194C164.06 9.46862 165.165 9.98219 166.106 10.6601C167.048 11.3277 167.774 12.1494 168.286 13.1252C168.807 14.1009 169.068 15.2154 169.068 16.4685V32.5532H162.009V29.2561H161.825C161.406 30.0573 160.869 30.7352 160.214 31.2898C159.569 31.8445 158.807 32.2605 157.927 32.5378C157.058 32.8151 156.076 32.9538 154.981 32.9538ZM157.298 28.0236C158.106 28.0236 158.833 27.8593 159.477 27.5306C160.132 27.2019 160.654 26.75 161.042 26.1748C161.431 25.5893 161.626 24.9114 161.626 24.1411V21.8917C161.411 22.0047 161.15 22.1074 160.843 22.1998C160.546 22.2922 160.219 22.3796 159.861 22.4617C159.503 22.5439 159.134 22.6158 158.756 22.6774C158.377 22.739 158.014 22.7955 157.666 22.8469C156.961 22.9599 156.357 23.1345 155.856 23.3707C155.365 23.607 154.986 23.9151 154.72 24.2951C154.464 24.6649 154.336 25.1066 154.336 25.6201C154.336 26.4007 154.613 26.9965 155.165 27.4073C155.728 27.8182 156.439 28.0236 157.298 28.0236Z" fill="url(#paint1_linear_1_391)"/>
<path d="M195.677 8.8883L187.59 32.5532H178.997L170.925 8.8883H178.828L183.171 25.1887H183.416L187.774 8.8883H195.677Z" fill="url(#paint2_linear_1_391)"/>
<path d="M208.813 33C206.348 33 204.22 32.5121 202.429 31.5364C200.649 30.5503 199.278 29.1483 198.317 27.3303C197.365 25.502 196.89 23.3296 196.89 20.8132C196.89 18.3686 197.37 16.2322 198.332 14.4039C199.294 12.5654 200.649 11.1377 202.399 10.1208C204.148 9.09373 206.21 8.58016 208.583 8.58016C210.261 8.58016 211.795 8.84208 213.187 9.36591C214.578 9.88974 215.78 10.6652 216.793 11.6923C217.806 12.7195 218.593 13.988 219.156 15.4978C219.719 16.9974 220 18.7179 220 20.6591V22.5388H199.514V18.1632H213.018C213.008 17.3621 212.818 16.6482 212.45 16.0217C212.082 15.3951 211.575 14.9072 210.931 14.558C210.297 14.1985 209.565 14.0188 208.736 14.0188C207.897 14.0188 207.146 14.2088 206.481 14.5888C205.816 14.9586 205.289 15.467 204.9 16.1141C204.511 16.7509 204.307 17.475 204.286 18.2865V22.739C204.286 23.7045 204.475 24.5519 204.854 25.2812C205.232 26.0002 205.77 26.5599 206.465 26.9605C207.161 27.3611 207.99 27.5614 208.951 27.5614C209.616 27.5614 210.22 27.4689 210.762 27.2841C211.304 27.0992 211.77 26.827 212.158 26.4675C212.547 26.108 212.839 25.6663 213.033 25.1425L219.923 25.3428C219.637 26.8938 219.008 28.2444 218.036 29.3948C217.074 30.5349 215.811 31.4234 214.245 32.0602C212.68 32.6867 210.869 33 208.813 33Z" fill="url(#paint3_linear_1_391)"/>
<path d="M1 7.19355V1H27.5631V7.19355H18.0335V32.5532H10.5449V7.19355H1Z" stroke="black" stroke-width="2" mask="url(#path-1-outside-1_1_391)"/>
<path d="M38.8728 33C36.4073 33 34.2794 32.5121 32.489 31.5364C30.709 30.5503 29.3381 29.1483 28.3764 27.3303C27.425 25.502 26.9493 23.3296 26.9493 20.8132C26.9493 18.3686 27.4301 16.2322 28.3918 14.4039C29.3534 12.5654 30.709 11.1377 32.4584 10.1208C34.2077 9.09373 36.2692 8.58016 38.6426 8.58016C40.3204 8.58016 41.8549 8.84208 43.2463 9.36591C44.6376 9.88974 45.8397 10.6652 46.8525 11.6923C47.8653 12.7195 48.653 13.988 49.2157 15.4978C49.7784 16.9974 50.0597 18.7179 50.0597 20.6591V22.5388H29.5734V18.1632H43.0775C43.0672 17.3621 42.878 16.6482 42.5097 16.0217C42.1414 15.3951 41.635 14.9072 40.9905 14.558C40.3562 14.1985 39.6247 14.0188 38.7961 14.0188C37.9572 14.0188 37.2052 14.2088 36.5403 14.5888C35.8753 14.9586 35.3484 15.467 34.9597 16.1141C34.5709 16.7509 34.3663 17.475 34.3459 18.2865V22.739C34.3459 23.7045 34.5351 24.5519 34.9136 25.2812C35.2922 26.0002 35.8293 26.5599 36.5249 26.9605C37.2206 27.3611 38.0492 27.5614 39.0109 27.5614C39.6759 27.5614 40.2795 27.4689 40.8217 27.2841C41.3639 27.0992 41.8294 26.827 42.2181 26.4675C42.6069 26.108 42.8984 25.6663 43.0928 25.1425L49.983 25.3428C49.6965 26.8938 49.0673 28.2444 48.0955 29.3948C47.1338 30.5349 45.8704 31.4234 44.3051 32.0602C42.7399 32.6867 40.9291 33 38.8728 33Z" stroke="black" stroke-width="2" mask="url(#path-1-outside-1_1_391)"/>
<path d="M64.895 33C62.409 33 60.276 32.4864 58.4959 31.4593C56.726 30.4322 55.3654 29.0045 54.414 27.1762C53.4626 25.3377 52.9868 23.2115 52.9868 20.7978C52.9868 18.3738 53.4626 16.2476 54.414 14.4194C55.3756 12.5808 56.7414 11.148 58.5112 10.1208C60.2913 9.09373 62.4141 8.58016 64.8796 8.58016C67.0587 8.58016 68.9564 8.97561 70.5728 9.76649C72.1995 10.5574 73.468 11.6769 74.3785 13.1252C75.2993 14.5632 75.7852 16.2528 75.8364 18.194H68.8234C68.6802 16.982 68.271 16.0319 67.5958 15.3438C66.9308 14.6556 66.0612 14.3115 64.9871 14.3115C64.1175 14.3115 63.3553 14.558 62.7006 15.051C62.0458 15.5338 61.5343 16.2528 61.166 17.208C60.808 18.1529 60.6289 19.3239 60.6289 20.7208C60.6289 22.1176 60.808 23.2988 61.166 24.2643C61.5343 25.2195 62.0458 25.9437 62.7006 26.4367C63.3553 26.9194 64.1175 27.1608 64.9871 27.1608C65.6827 27.1608 66.2965 27.0119 66.8285 26.714C67.3707 26.4161 67.8158 25.9796 68.1636 25.4044C68.5114 24.819 68.7314 24.1103 68.8234 23.2783H75.8364C75.7647 25.2298 75.2788 26.9348 74.3785 28.3934C73.4885 29.8519 72.2353 30.9868 70.6189 31.7983C69.0127 32.5994 67.1047 33 64.895 33Z" stroke="black" stroke-width="2" mask="url(#path-1-outside-1_1_391)"/>
<path d="M87.1805 19.0568V32.5532H79.6766V1H86.935V13.233H87.1959C87.7279 11.7745 88.5975 10.6344 89.8046 9.81271C91.022 8.99101 92.5106 8.58016 94.2702 8.58016C95.9275 8.58016 97.37 8.94993 98.5976 9.68946C99.8253 10.4187 100.777 11.451 101.452 12.7862C102.137 14.1215 102.475 15.6827 102.465 17.4699V32.5532H94.9607V18.949C94.971 17.6342 94.6436 16.6071 93.9786 15.8676C93.3136 15.1281 92.3776 14.7583 91.1704 14.7583C90.3826 14.7583 89.687 14.9329 89.0834 15.2821C88.49 15.6211 88.0246 16.109 87.687 16.7458C87.3596 17.3826 87.1908 18.1529 87.1805 19.0568Z" stroke="black" stroke-width="2" mask="url(#path-1-outside-1_1_391)"/>
<path d="M112.489 32.5532L103.343 1H111.737L116.479 21.676H116.74L122.157 1H129.001L134.418 21.7222H134.679L139.436 1H147.815L138.684 32.5532H131.364L125.702 13.4179H125.456L119.794 32.5532H112.489Z" stroke="black" stroke-width="2" mask="url(#path-1-outside-1_1_391)"/>
<path d="M154.981 32.9538C153.477 32.9538 152.142 32.7021 150.976 32.1988C149.82 31.6853 148.904 30.9149 148.229 29.8878C147.564 28.8504 147.231 27.5511 147.231 25.9899C147.231 24.6752 147.462 23.5659 147.922 22.662C148.382 21.7581 149.017 21.0238 149.825 20.4588C150.633 19.8939 151.564 19.4677 152.618 19.1801C153.671 18.8822 154.797 18.6819 155.994 18.5792C157.334 18.4559 158.413 18.3276 159.232 18.194C160.05 18.0502 160.643 17.8499 161.012 17.5932C161.39 17.3261 161.58 16.9512 161.58 16.4685V16.3914C161.58 15.6005 161.308 14.9894 160.766 14.558C160.224 14.1266 159.493 13.9109 158.572 13.9109C157.579 13.9109 156.782 14.1266 156.178 14.558C155.574 14.9894 155.191 15.5851 155.027 16.3452L148.106 16.0987C148.311 14.6607 148.838 13.3768 149.687 12.247C150.546 11.1069 151.723 10.2133 153.216 9.5662C154.72 8.90884 156.526 8.58016 158.633 8.58016C160.137 8.58016 161.523 8.75991 162.792 9.1194C164.06 9.46862 165.165 9.98219 166.106 10.6601C167.048 11.3277 167.774 12.1494 168.286 13.1252C168.807 14.1009 169.068 15.2154 169.068 16.4685V32.5532H162.009V29.2561H161.825C161.406 30.0573 160.869 30.7352 160.214 31.2898C159.569 31.8445 158.807 32.2605 157.927 32.5378C157.058 32.8151 156.076 32.9538 154.981 32.9538ZM157.298 28.0236C158.106 28.0236 158.833 27.8593 159.477 27.5306C160.132 27.2019 160.654 26.75 161.042 26.1748C161.431 25.5893 161.626 24.9114 161.626 24.1411V21.8917C161.411 22.0047 161.15 22.1074 160.843 22.1998C160.546 22.2922 160.219 22.3796 159.861 22.4617C159.503 22.5439 159.134 22.6158 158.756 22.6774C158.377 22.739 158.014 22.7955 157.666 22.8469C156.961 22.9599 156.357 23.1345 155.856 23.3707C155.365 23.607 154.986 23.9151 154.72 24.2951C154.464 24.6649 154.336 25.1066 154.336 25.6201C154.336 26.4007 154.613 26.9965 155.165 27.4073C155.728 27.8182 156.439 28.0236 157.298 28.0236Z" stroke="black" stroke-width="2" mask="url(#path-1-outside-1_1_391)"/>
<path d="M195.677 8.8883L187.59 32.5532H178.997L170.925 8.8883H178.828L183.171 25.1887H183.416L187.774 8.8883H195.677Z" stroke="black" stroke-width="2" mask="url(#path-1-outside-1_1_391)"/>
<path d="M208.813 33C206.348 33 204.22 32.5121 202.429 31.5364C200.649 30.5503 199.278 29.1483 198.317 27.3303C197.365 25.502 196.89 23.3296 196.89 20.8132C196.89 18.3686 197.37 16.2322 198.332 14.4039C199.294 12.5654 200.649 11.1377 202.399 10.1208C204.148 9.09373 206.21 8.58016 208.583 8.58016C210.261 8.58016 211.795 8.84208 213.187 9.36591C214.578 9.88974 215.78 10.6652 216.793 11.6923C217.806 12.7195 218.593 13.988 219.156 15.4978C219.719 16.9974 220 18.7179 220 20.6591V22.5388H199.514V18.1632H213.018C213.008 17.3621 212.818 16.6482 212.45 16.0217C212.082 15.3951 211.575 14.9072 210.931 14.558C210.297 14.1985 209.565 14.0188 208.736 14.0188C207.897 14.0188 207.146 14.2088 206.481 14.5888C205.816 14.9586 205.289 15.467 204.9 16.1141C204.511 16.7509 204.307 17.475 204.286 18.2865V22.739C204.286 23.7045 204.475 24.5519 204.854 25.2812C205.232 26.0002 205.77 26.5599 206.465 26.9605C207.161 27.3611 207.99 27.5614 208.951 27.5614C209.616 27.5614 210.22 27.4689 210.762 27.2841C211.304 27.0992 211.77 26.827 212.158 26.4675C212.547 26.108 212.839 25.6663 213.033 25.1425L219.923 25.3428C219.637 26.8938 219.008 28.2444 218.036 29.3948C217.074 30.5349 215.811 31.4234 214.245 32.0602C212.68 32.6867 210.869 33 208.813 33Z" stroke="black" stroke-width="2" mask="url(#path-1-outside-1_1_391)"/>
<defs>
<linearGradient id="paint0_linear_1_391" x1="33.5063" y1="27.1087" x2="40.4816" y2="-15.7846" gradientUnits="userSpaceOnUse">
<stop stop-color="#F7E93F"/>
<stop offset="0.5112" stop-color="#FB09B4"/>
<stop offset="1" stop-color="#9100F8"/>
</linearGradient>
<linearGradient id="paint1_linear_1_391" x1="33.5063" y1="27.1087" x2="40.4816" y2="-15.7846" gradientUnits="userSpaceOnUse">
<stop stop-color="#F7E93F"/>
<stop offset="0.5112" stop-color="#FB09B4"/>
<stop offset="1" stop-color="#9100F8"/>
</linearGradient>
<linearGradient id="paint2_linear_1_391" x1="33.5063" y1="27.1087" x2="40.4816" y2="-15.7846" gradientUnits="userSpaceOnUse">
<stop stop-color="#F7E93F"/>
<stop offset="0.5112" stop-color="#FB09B4"/>
<stop offset="1" stop-color="#9100F8"/>
</linearGradient>
<linearGradient id="paint3_linear_1_391" x1="33.5063" y1="27.1087" x2="40.4816" y2="-15.7846" gradientUnits="userSpaceOnUse">
<stop stop-color="#F7E93F"/>
<stop offset="0.5112" stop-color="#FB09B4"/>
<stop offset="1" stop-color="#9100F8"/>
</linearGradient>
</defs>
</svg>
